<svg width="713" height="851" viewBox="0 0 713 851" fill="none" xmlns="http://www.w3.org/2000/svg">
<path d="M675.93 318.944C735.519 491.86 729.134 695.956 613.504 789.5C497.164 883.044 271.578 866.745 139.632 761.862C7.68575 656.979 -29.9119 462.804 23.2923 297.684C77.2059 132.565 221.921 -2.79095 356.705 0.0437281C491.489 3.58707 617.051 146.029 675.93 318.944Z" fill="#FAF8F2"/>
<path d="M575.95 616.847L546.75 368.646C546.541 366.87 545.687 365.233 544.351 364.044C543.015 362.856 541.288 362.2 539.5 362.2H472.139C485.723 339.488 485.637 319.919 482.026 305.898L559.262 228.662C559.94 227.984 560.478 227.18 560.845 226.294C561.212 225.408 561.4 224.459 561.4 223.5C561.4 222.542 561.212 221.592 560.845 220.707C560.478 219.821 559.94 219.016 559.262 218.338L530.062 189.138C529.384 188.46 528.579 187.923 527.694 187.556C526.808 187.189 525.859 187 524.9 187C523.941 187 522.992 187.189 522.106 187.556C521.221 187.923 520.416 188.46 519.738 189.138L458.926 249.948C451.502 239.513 441.69 231.005 430.309 225.134C418.927 219.264 406.306 216.2 393.5 216.199H320.5C299.21 216.224 278.8 224.691 263.746 239.745C248.692 254.799 240.224 275.21 240.2 296.5V362.2H174.5C172.712 362.2 170.985 362.856 169.649 364.044C168.313 365.233 167.459 366.87 167.25 368.646L138.05 616.847C137.93 617.87 138.027 618.908 138.337 619.891C138.646 620.874 139.16 621.781 139.845 622.551C140.53 623.321 141.37 623.937 142.31 624.36C143.25 624.782 144.269 625 145.3 625H568.7C569.731 625 570.75 624.782 571.69 624.36C572.63 623.937 573.47 623.321 574.155 622.551C574.84 621.781 575.354 620.874 575.663 619.891C575.973 618.908 576.07 617.87 575.95 616.847ZM558.994 597.67L531.884 570.559L511.121 376.8H533.006L558.994 597.67ZM526.034 585.358L551.076 610.4H509.34L526.034 585.358ZM500.632 597.142L474.713 376.8H496.445L517.364 572.049L500.632 597.142ZM433.024 362.2L430 359.176V296.5C430.001 290.608 429.355 284.735 428.071 278.985C432.353 279.117 436.599 279.804 440.705 281.028L467.361 307.685C473.723 329.015 464.533 348.618 454.636 362.2H433.024ZM357 231.215C367.807 232.439 378.142 236.321 387.082 242.516C396.021 248.71 403.287 257.023 408.229 266.711C380.811 274.088 361.461 295.881 358.923 298.854L298.6 359.176V296.5C298.622 280.346 304.586 264.765 315.356 252.725C326.126 240.686 340.949 233.029 357 231.215ZM415.4 296.5V344.576L374.499 303.675C381.469 296.913 395.783 284.937 413.443 280.594C414.743 285.796 415.4 291.138 415.4 296.5ZM364.3 314.124L412.376 362.2H316.224L364.3 314.124ZM473.8 293.475L454.924 274.599L466.5 263.023L485.376 281.899L473.8 293.475ZM524.9 204.622L543.777 223.499L495.7 271.575L476.824 252.699L524.9 204.622ZM448.427 260.448L442.507 266.369C436.233 264.734 429.75 264.052 423.273 264.345C417.358 250.895 407.888 239.313 395.881 230.844C406.367 231.225 416.609 234.112 425.751 239.262C434.893 244.412 442.668 251.677 448.427 260.448ZM254.8 296.5C254.821 279.499 261.425 263.167 273.226 250.929C285.027 238.692 301.108 231.499 318.096 230.861C307.566 238.265 298.97 248.094 293.036 259.518C287.102 270.942 284.003 283.626 284 296.5V362.2H254.8V296.5ZM180.991 376.8H240.2V398.7C240.2 400.636 240.969 402.493 242.338 403.862C243.707 405.231 245.564 406 247.5 406C249.436 406 251.293 405.231 252.662 403.862C254.031 402.493 254.8 400.636 254.8 398.7V376.8H415.4V398.7C415.4 400.636 416.169 402.493 417.538 403.862C418.907 405.231 420.764 406 422.7 406C424.636 406 426.493 405.231 427.862 403.862C429.231 402.493 430 400.636 430 398.7V376.8H460.009L487.488 610.4H153.512L180.991 376.8Z" fill="#BC6E44"/>
<path d="M425.051 539.042C427.844 534.879 429.518 530.066 429.911 525.068C430.304 520.07 429.402 515.055 427.293 510.507C425.184 505.958 421.938 502.03 417.869 499.101C413.801 496.171 409.046 494.34 404.063 493.782C407.742 487.524 408.957 480.119 407.469 473.013C405.981 465.908 401.898 459.612 396.017 455.355C390.137 451.099 382.88 449.187 375.665 449.993C368.451 450.8 361.796 454.267 357 459.717C352.357 454.434 345.961 451.007 338.991 450.067L349.393 415.398C349.75 414.21 349.798 412.951 349.533 411.74C349.268 410.528 348.698 409.404 347.879 408.474C347.059 407.544 346.016 406.837 344.847 406.422C343.679 406.006 342.424 405.895 341.201 406.099L302.055 412.623L290.073 394.646C289.474 393.748 288.682 392.993 287.757 392.437C286.831 391.881 285.793 391.538 284.718 391.431C283.643 391.325 282.558 391.458 281.541 391.822C280.524 392.186 279.601 392.77 278.837 393.534C267.904 404.467 264.112 421.75 262.797 432.6L249.808 428.271C248.853 427.953 247.844 427.836 246.842 427.926C245.84 428.017 244.868 428.313 243.986 428.797C243.105 429.281 242.332 429.942 241.718 430.739C241.104 431.535 240.661 432.45 240.417 433.426C236.904 447.478 240.125 462.159 249.731 475.883C251.977 479.076 254.458 482.097 257.153 484.922C255.017 488.388 253.057 491.959 251.28 495.622C246.712 491.347 242.487 486.72 238.642 481.784C238.054 481.019 237.321 480.378 236.484 479.898C235.647 479.418 234.723 479.109 233.765 478.988C232.808 478.867 231.836 478.938 230.906 479.195C229.976 479.452 229.107 479.892 228.347 480.487C227.588 481.083 226.955 481.823 226.483 482.665C226.012 483.507 225.712 484.434 225.601 485.392C225.491 486.351 225.571 487.322 225.838 488.249C226.104 489.176 226.552 490.042 227.156 490.795C233.874 499.458 241.656 507.241 250.319 513.96C264.681 525.125 276.886 528.704 284.83 529.697C285.514 532.509 286.615 535.203 288.096 537.689C283.091 536.976 277.986 537.574 273.281 539.426C268.576 541.277 264.433 544.319 261.257 548.253C258.08 552.187 255.98 556.878 255.161 561.867C254.342 566.856 254.832 571.973 256.585 576.716C258.337 581.458 261.29 585.665 265.156 588.924C269.022 592.182 273.668 594.381 278.639 595.305C283.61 596.229 288.735 595.847 293.514 594.195C298.293 592.543 302.561 589.679 305.9 585.883C308.635 588.999 312.003 591.495 315.78 593.205C319.556 594.915 323.654 595.8 327.8 595.8C331.946 595.8 336.044 594.915 339.82 593.205C343.597 591.495 346.965 588.999 349.7 585.883C352.435 588.999 355.803 591.495 359.58 593.205C363.356 594.915 367.454 595.8 371.6 595.8C375.746 595.8 379.844 594.915 383.62 593.205C387.397 591.495 390.765 588.999 393.5 585.883C396.45 589.232 400.128 591.861 404.252 593.566C408.377 595.271 412.837 596.008 417.291 595.72C421.744 595.432 426.073 594.126 429.943 591.904C433.813 589.681 437.122 586.6 439.615 582.899C442.108 579.197 443.72 574.973 444.325 570.551C444.93 566.13 444.514 561.628 443.107 557.392C441.701 553.157 439.342 549.3 436.211 546.119C433.081 542.938 429.263 540.517 425.051 539.042ZM285.073 514.971C279.994 514.089 272.298 511.634 262.948 505.129C264.568 501.355 266.461 497.703 268.613 494.205C276.606 498.111 285.389 500.126 294.285 500.095C294.478 500.095 294.675 500.095 294.871 500.089C290.137 503.912 286.712 509.115 285.073 514.975V514.971ZM371.6 522.8C371.6 525.687 370.744 528.51 369.139 530.911C367.535 533.312 365.255 535.183 362.587 536.289C359.919 537.394 356.984 537.683 354.152 537.119C351.32 536.556 348.718 535.165 346.676 533.124C344.634 531.082 343.244 528.48 342.681 525.648C342.117 522.816 342.406 519.88 343.511 517.213C344.616 514.545 346.488 512.265 348.889 510.66C351.29 509.056 354.112 508.2 357 508.2C360.871 508.204 364.582 509.744 367.319 512.481C370.056 515.218 371.595 518.929 371.6 522.8ZM313.2 508.2C316.088 508.2 318.91 509.056 321.311 510.66C323.712 512.265 325.584 514.545 326.689 517.213C327.794 519.88 328.083 522.816 327.519 525.648C326.956 528.48 325.566 531.082 323.524 533.124C321.482 535.165 318.88 536.556 316.048 537.119C313.216 537.683 310.281 537.394 307.613 536.289C304.945 535.183 302.665 533.312 301.061 530.911C299.456 528.51 298.6 525.687 298.6 522.8C298.605 518.929 300.144 515.218 302.881 512.481C305.618 509.744 309.329 508.204 313.2 508.2ZM415.4 522.8C415.4 525.687 414.544 528.51 412.94 530.911C411.335 533.312 409.055 535.183 406.387 536.289C403.719 537.394 400.784 537.683 397.952 537.119C395.12 536.556 392.518 535.165 390.476 533.124C388.434 531.082 387.044 528.48 386.481 525.648C385.917 522.816 386.206 519.88 387.311 517.213C388.416 514.545 390.288 512.265 392.689 510.66C395.09 509.056 397.912 508.2 400.8 508.2C404.671 508.204 408.382 509.744 411.119 512.481C413.856 515.218 415.395 518.929 415.4 522.8ZM378.9 464.4C381.788 464.4 384.61 465.256 387.011 466.86C389.412 468.465 391.284 470.745 392.389 473.413C393.494 476.08 393.783 479.016 393.219 481.848C392.656 484.68 391.266 487.282 389.224 489.324C387.182 491.365 384.58 492.756 381.748 493.319C378.916 493.883 375.981 493.593 373.313 492.488C370.645 491.383 368.365 489.512 366.761 487.111C365.156 484.71 364.3 481.887 364.3 479C364.305 475.129 365.844 471.418 368.581 468.681C371.318 465.944 375.029 464.404 378.9 464.4ZM349.7 479C349.7 481.887 348.844 484.71 347.239 487.111C345.635 489.512 343.355 491.383 340.687 492.488C338.019 493.593 335.084 493.883 332.252 493.319C329.42 492.756 326.818 491.365 324.776 489.324C322.734 487.282 321.344 484.68 320.781 481.848C320.217 479.016 320.506 476.08 321.611 473.413C322.716 470.745 324.588 468.465 326.989 466.86C329.39 465.256 332.212 464.4 335.1 464.4C338.971 464.404 342.682 465.944 345.419 468.681C348.156 471.418 349.695 475.129 349.7 479ZM267.091 449.425C268.188 449.789 269.355 449.888 270.497 449.714C271.64 449.54 272.724 449.097 273.662 448.422C274.6 447.747 275.364 446.859 275.892 445.831C276.421 444.804 276.697 443.665 276.7 442.51C276.7 442.293 276.844 424.55 283.726 411.447L292.528 424.649C293.308 425.819 294.41 426.739 295.7 427.298C296.99 427.857 298.415 428.031 299.802 427.8L332.039 422.425L323.043 452.414C317.162 455.072 312.33 459.606 309.304 465.305C306.277 471.005 305.228 477.548 306.321 483.908C296.507 486.62 286.062 485.917 276.7 481.914C284.231 471.453 293.592 460.897 302.124 456.192C302.99 455.744 303.758 455.127 304.382 454.378C305.006 453.628 305.473 452.761 305.756 451.828C306.04 450.895 306.133 449.915 306.031 448.945C305.929 447.975 305.634 447.035 305.163 446.182C304.692 445.328 304.055 444.577 303.289 443.973C302.523 443.37 301.644 442.926 300.704 442.668C299.763 442.41 298.781 442.343 297.814 442.47C296.847 442.598 295.916 442.919 295.075 443.412C283.355 449.875 272.328 463.097 265.504 472.438C259.999 466.056 253.755 456.329 253.642 444.945L267.091 449.425ZM284 581.2C281.112 581.2 278.29 580.344 275.889 578.739C273.488 577.135 271.616 574.855 270.511 572.187C269.406 569.519 269.117 566.584 269.68 563.752C270.244 560.919 271.634 558.318 273.676 556.276C275.718 554.234 278.32 552.844 281.152 552.28C283.984 551.717 286.919 552.006 289.587 553.111C292.255 554.216 294.535 556.088 296.139 558.489C297.744 560.89 298.6 563.712 298.6 566.6C298.595 570.471 297.056 574.182 294.319 576.919C291.582 579.656 287.871 581.195 284 581.2ZM327.8 581.2C324.912 581.2 322.09 580.344 319.689 578.739C317.288 577.135 315.416 574.855 314.311 572.187C313.206 569.519 312.917 566.584 313.481 563.752C314.044 560.919 315.434 558.318 317.476 556.276C319.518 554.234 322.12 552.844 324.952 552.28C327.784 551.717 330.719 552.006 333.387 553.111C336.055 554.216 338.335 556.088 339.939 558.489C341.544 560.89 342.4 563.712 342.4 566.6C342.395 570.471 340.856 574.182 338.119 576.919C335.382 579.656 331.671 581.195 327.8 581.2ZM371.6 581.2C368.712 581.2 365.89 580.344 363.489 578.739C361.088 577.135 359.216 574.855 358.111 572.187C357.006 569.519 356.717 566.584 357.281 563.752C357.844 560.919 359.234 558.318 361.276 556.276C363.318 554.234 365.92 552.844 368.752 552.28C371.584 551.717 374.519 552.006 377.187 553.111C379.855 554.216 382.135 556.088 383.739 558.489C385.344 560.89 386.2 563.712 386.2 566.6C386.195 570.471 384.656 574.182 381.919 576.919C379.182 579.656 375.471 581.195 371.6 581.2ZM415.4 581.2C412.512 581.2 409.69 580.344 407.289 578.739C404.888 577.135 403.016 574.855 401.911 572.187C400.806 569.519 400.517 566.584 401.081 563.752C401.644 560.919 403.034 558.318 405.076 556.276C407.118 554.234 409.72 552.844 412.552 552.28C415.384 551.717 418.319 552.006 420.987 553.111C423.655 554.216 425.935 556.088 427.54 558.489C429.144 560.89 430 563.712 430 566.6C429.995 570.471 428.456 574.182 425.719 576.919C422.982 579.656 419.271 581.195 415.4 581.2Z" fill="#BC6E44"/>
</svg>
