<svg width="706" height="784" viewBox="0 0 706 784" fill="none" xmlns="http://www.w3.org/2000/svg">
<path d="M669.294 293.834C728.298 453.135 721.976 641.163 607.481 727.342C492.283 813.522 268.912 798.506 138.261 701.88C7.6103 605.255 -29.6182 426.367 23.0636 274.247C76.4479 122.128 219.742 -2.57121 353.203 0.0402853C486.664 3.30466 610.993 134.532 669.294 293.834Z" fill="#FAF8F2"/>
<path d="M454.989 178.18C454.421 176.933 453.505 175.876 452.351 175.135C451.197 174.394 449.854 174 448.481 174H348.407C347.035 174 345.692 174.394 344.538 175.135C343.384 175.876 342.468 176.933 341.9 178.18C340.415 181.44 305.519 258.614 305.519 309.492C305.466 332.312 313.903 354.34 329.197 371.31C323.92 391.148 315.673 409.163 311.006 418.532C307.557 420.807 304.383 422.907 301.553 424.789C283.154 437.026 268.782 449.52 258.835 461.921C255.535 465.93 252.657 470.267 250.246 474.863L188.888 495.269C187.464 495.742 186.227 496.65 185.349 497.864C184.472 499.078 184 500.537 184 502.034V601.87C184 602.966 184.254 604.047 184.741 605.03C185.228 606.012 185.935 606.87 186.808 607.535C187.681 608.2 188.696 608.656 189.774 608.867C190.852 609.078 191.964 609.038 193.025 608.75L269.306 587.996C286.39 593.879 312.395 581.445 315.789 579.759L375.437 551.571C372.235 558.807 364.168 566.667 351.938 574.32C343.197 579.697 333.998 584.295 324.448 588.062C322.879 588.648 321.567 589.766 320.74 591.219C319.913 592.673 319.624 594.37 319.924 596.014C320.223 597.658 321.092 599.145 322.379 600.216C323.665 601.286 325.288 601.872 326.963 601.87H469.926C471.601 601.87 473.222 601.284 474.508 600.213C475.794 599.142 476.661 597.655 476.96 596.011C477.259 594.367 476.97 592.671 476.143 591.218C475.316 589.765 474.004 588.648 472.436 588.062C458.803 582.962 419.889 564.075 419.889 544.821V530.567L443.365 519.473C447.027 517.73 450.121 514.991 452.291 511.57C454.461 508.15 455.618 504.187 455.63 500.14V477.916L455.719 477.872C460.099 475.714 463.603 472.12 465.644 467.692C467.685 463.264 468.14 458.271 466.933 453.549L464.172 442.53L467.104 441.555C472.144 439.892 476.384 436.418 479 431.809C481.615 427.2 482.42 421.786 481.257 416.618L470.819 369.765L477.687 365.196C481.62 362.569 484.573 358.719 486.086 354.245C487.599 349.771 487.588 344.923 486.054 340.456C489.586 330.513 491.384 320.041 491.37 309.492C491.37 258.614 456.474 181.44 454.989 178.18ZM353.077 188.262H443.813C449.698 201.879 468.05 246.253 474.662 284.612C465.432 288.582 447.919 295.23 434.185 295.23C425.754 295.23 413.983 286.842 402.599 278.73C389.382 269.313 375.717 259.574 362.704 259.574C352.601 259.574 340.326 263.466 326.22 271.142C325.728 271.409 325.248 271.677 324.769 271.944C332.686 236.984 347.831 200.404 353.077 188.262ZM319.815 309.492C319.864 303.232 320.346 296.982 321.257 290.788C331.049 284.252 349.453 273.836 362.704 273.836C371.135 273.836 382.906 282.224 394.29 290.336C407.507 299.754 421.172 309.492 434.185 309.492C448.722 309.492 465.781 303.675 476.605 299.277C476.91 302.796 477.074 306.213 477.074 309.492C477.072 315.056 476.478 320.603 475.303 326.042C471.867 323.981 467.92 322.925 463.911 322.994C459.902 323.063 455.994 324.254 452.631 326.432C434.62 338.074 402.965 358.554 372.093 378.62C373.489 366.431 371.62 356.094 366.487 347.762C363.808 343.501 360.298 339.821 356.166 336.939C352.035 334.056 347.365 332.031 342.434 330.983C341.41 330.813 340.361 330.867 339.361 331.142C338.36 331.417 337.431 331.906 336.639 332.576C335.847 333.245 335.21 334.079 334.774 335.018C334.337 335.958 334.111 336.981 334.111 338.017C334.088 343.022 333.714 348.02 332.992 352.973C324.372 340.105 319.784 324.969 319.815 309.492ZM347.886 348.514C350.536 350.316 352.763 352.668 354.417 355.409C359.231 363.393 359.517 374.876 355.289 389.549C347.668 394.513 340.271 399.339 333.323 403.882C343.046 379.944 346.688 361.248 347.886 348.514ZM437.545 586.524C438.133 586.891 438.722 587.252 439.31 587.608H357.578C358.166 587.251 358.755 586.89 359.344 586.524C380.546 573.304 391.296 559.273 391.296 544.821V544.079L405.593 537.323V544.821C405.593 559.273 416.343 573.304 437.545 586.524ZM469.756 353.335L380.31 410.443C378.941 411.312 377.908 412.621 377.383 414.153C376.858 415.686 376.872 417.351 377.422 418.875C377.971 420.399 379.025 421.69 380.409 422.538C381.792 423.385 383.424 423.737 385.035 423.536L442.22 416.404C443.195 416.283 444.134 415.962 444.98 415.462C445.825 414.962 446.558 414.293 447.132 413.498C447.707 412.702 448.111 411.797 448.319 410.839C448.527 409.881 448.535 408.89 448.342 407.929L444.112 386.844L458.012 378.019L467.299 419.712C467.687 421.434 467.419 423.239 466.547 424.775C465.675 426.312 464.261 427.47 462.581 428.024L403.627 445.259C402.724 445.517 401.881 445.949 401.146 446.531C400.411 447.114 399.798 447.835 399.343 448.654C398.887 449.473 398.597 450.373 398.491 451.303C398.384 452.234 398.462 453.176 398.72 454.077C398.978 454.977 399.411 455.818 399.995 456.551C400.579 457.285 401.302 457.896 402.123 458.351C402.943 458.805 403.846 459.094 404.779 459.201C405.711 459.307 406.656 459.23 407.558 458.972L450.489 446.736L453.063 457.008C453.467 458.583 453.316 460.248 452.635 461.725C451.955 463.202 450.786 464.401 449.325 465.12L410.088 481.155C409.216 481.502 408.422 482.018 407.75 482.672C407.078 483.326 406.542 484.106 406.172 484.967C405.803 485.827 405.606 486.752 405.595 487.689C405.583 488.625 405.757 489.555 406.105 490.424C406.454 491.294 406.971 492.086 407.627 492.756C408.282 493.427 409.064 493.962 409.927 494.331C410.789 494.699 411.717 494.895 412.655 494.907C413.594 494.918 414.526 494.745 415.397 494.397L441.333 484.042V500.14C441.33 501.489 440.944 502.809 440.221 503.949C439.497 505.09 438.466 506.003 437.245 506.583L309.606 566.901C309.564 566.92 309.517 566.943 309.475 566.965C298.907 572.215 280.596 577.899 272.975 574.096C271.402 573.311 269.594 573.133 267.897 573.594L198.296 592.534V507.174L257.742 487.405C258.8 487.082 259.763 486.507 260.548 485.729C261.334 484.952 261.917 483.995 262.248 482.942C262.65 481.915 270.708 462.445 309.484 436.655C343.445 414.068 426.341 360.419 460.405 338.402C461.248 337.857 462.198 337.495 463.192 337.341C464.185 337.187 465.2 337.244 466.17 337.508C467.14 337.772 468.043 338.238 468.82 338.874C469.597 339.511 470.231 340.303 470.68 341.201L472.187 344.208C472.963 345.763 473.144 347.547 472.697 349.226C472.249 350.906 471.204 352.365 469.756 353.33V353.335ZM432.815 403.208L414.805 405.455L431.179 395.058L432.815 403.208Z" fill="#BC6E44"/>
<path d="M274.832 268.794C274.169 268.132 273.381 267.606 272.513 267.248C271.646 266.889 270.717 266.705 269.778 266.705C268.839 266.705 267.909 266.889 267.042 267.248C266.175 267.606 265.387 268.132 264.723 268.794C256.681 276.816 255.481 288.8 255.481 295.23C255.481 301.66 256.682 313.643 264.723 321.666C266.064 323.003 267.882 323.755 269.778 323.755C271.674 323.755 273.492 323.003 274.832 321.666C276.173 320.329 276.926 318.515 276.926 316.623C276.926 314.732 276.173 312.918 274.832 311.581C271.62 308.376 269.778 302.416 269.778 295.23C269.778 288.043 271.62 282.084 274.832 278.879C275.496 278.217 276.023 277.431 276.382 276.565C276.741 275.7 276.926 274.773 276.926 273.836C276.926 272.9 276.741 271.973 276.382 271.107C276.023 270.242 275.496 269.456 274.832 268.794Z" fill="#BC6E44"/>
<path d="M243.279 247.4C229.018 261.624 226.889 283.474 226.889 295.23C226.889 306.986 229.018 328.836 243.279 343.06C243.942 343.722 244.731 344.247 245.598 344.605C246.465 344.964 247.395 345.148 248.333 345.148C249.272 345.148 250.202 344.964 251.069 344.605C251.936 344.247 252.724 343.722 253.388 343.06C254.052 342.397 254.578 341.611 254.938 340.746C255.297 339.881 255.482 338.953 255.482 338.017C255.482 337.08 255.297 336.153 254.938 335.288C254.578 334.423 254.052 333.636 253.388 332.974C245.633 325.238 241.185 311.48 241.185 295.23C241.185 278.98 245.633 265.222 253.388 257.485C254.729 256.148 255.482 254.334 255.482 252.443C255.482 250.552 254.729 248.738 253.388 247.4C252.047 246.063 250.229 245.312 248.333 245.312C246.437 245.312 244.619 246.063 243.279 247.4Z" fill="#BC6E44"/>
<path d="M532.166 268.794C531.502 268.132 530.714 267.606 529.847 267.248C528.979 266.889 528.05 266.705 527.111 266.705C526.172 266.705 525.243 266.889 524.376 267.248C523.508 267.606 522.72 268.132 522.056 268.794C521.393 269.456 520.866 270.242 520.507 271.107C520.148 271.973 519.963 272.9 519.963 273.836C519.963 274.773 520.148 275.7 520.507 276.565C520.866 277.431 521.393 278.217 522.056 278.879C525.269 282.084 527.111 288.043 527.111 295.23C527.111 302.416 525.269 308.376 522.056 311.581C520.716 312.918 519.963 314.732 519.963 316.623C519.963 318.515 520.716 320.329 522.056 321.666C523.397 323.003 525.215 323.755 527.111 323.755C529.007 323.755 530.825 323.003 532.166 321.666C540.207 313.643 541.407 301.66 541.407 295.23C541.407 288.8 540.207 276.816 532.166 268.794Z" fill="#BC6E44"/>
<path d="M543.501 247.4C542.837 248.062 542.311 248.849 541.951 249.714C541.592 250.579 541.407 251.506 541.407 252.443C541.407 253.379 541.592 254.307 541.951 255.172C542.311 256.037 542.837 256.823 543.501 257.485C551.256 265.222 555.704 278.98 555.704 295.23C555.704 311.48 551.256 325.238 543.501 332.974C542.837 333.636 542.311 334.423 541.951 335.288C541.592 336.153 541.407 337.08 541.407 338.017C541.407 338.953 541.592 339.881 541.951 340.746C542.311 341.611 542.837 342.397 543.501 343.06C544.165 343.722 544.953 344.247 545.82 344.605C546.687 344.964 547.617 345.148 548.556 345.148C549.494 345.148 550.424 344.964 551.291 344.605C552.158 344.247 552.946 343.722 553.61 343.06C567.871 328.836 570 306.986 570 295.23C570 283.474 567.871 261.624 553.61 247.4C552.946 246.738 552.158 246.213 551.291 245.854C550.424 245.496 549.494 245.311 548.556 245.311C547.617 245.311 546.687 245.496 545.82 245.854C544.953 246.213 544.165 246.738 543.501 247.4Z" fill="#BC6E44"/>
</svg>
