<svg width="843" height="803" viewBox="0 0 843 803" fill="none" xmlns="http://www.w3.org/2000/svg">
<path d="M590.488 230.258C696.316 328.693 830.747 413.782 842.188 518.335C853.629 622.888 742.795 746.349 599.783 786.947C457.487 828.101 284.443 785.278 187.195 713.537C89.9477 641.24 69.2111 538.912 40.6088 438.808C12.0065 339.26 -24.4614 241.38 22.7324 152.955C69.9261 64.5302 200.782 -14.4407 304.465 2.24333C408.148 18.9273 485.374 131.266 590.488 230.258Z" fill="#FAF8F2"/>
<path d="M226.896 605.95C225.68 606.863 224.782 608.136 224.329 609.588C223.876 611.041 223.891 612.599 224.372 614.043C224.852 615.486 225.774 616.742 227.007 617.631C228.239 618.521 229.72 619 231.24 619H578.76C580.28 619 581.761 618.521 582.993 617.631C584.226 616.742 585.148 615.486 585.628 614.043C586.109 612.599 586.124 611.041 585.671 609.588C585.218 608.136 584.32 606.863 583.104 605.95C575.753 600.429 556.113 584.34 549.8 573.643V545.885C559.915 544.159 569.096 538.909 575.72 531.062C582.345 523.215 585.986 513.275 586 503C586 487.549 572.537 453.401 571.002 449.558C570.465 448.212 569.537 447.059 568.339 446.247C567.141 445.434 565.727 445 564.28 445H549.757C549.351 437.015 546.334 429.385 541.171 423.286C536.007 417.187 528.985 412.958 521.185 411.249L448.44 395.639V375.974C457.347 370.016 464.649 361.951 469.7 352.493C474.752 343.035 477.396 332.476 477.4 321.75V234.75C477.385 221.295 472.041 208.395 462.539 198.881C453.038 189.367 440.157 184.015 426.72 184H383.28C369.843 184.015 356.962 189.367 347.46 198.881C337.959 208.395 332.615 221.295 332.6 234.75V321.75C332.604 332.476 335.248 343.035 340.3 352.493C345.351 361.951 352.653 370.016 361.56 375.974V395.639L288.815 411.249C281.015 412.958 273.993 417.187 268.829 423.286C263.666 429.385 260.649 437.015 260.243 445H245.72C244.273 445 242.859 445.434 241.661 446.247C240.463 447.059 239.535 448.212 238.998 449.558C237.463 453.401 224 487.549 224 503C224.014 513.275 227.655 523.215 234.28 531.062C240.904 538.909 250.085 544.159 260.2 545.885V573.642C253.893 584.323 234.248 600.422 226.896 605.95ZM251.414 604.5L251.435 604.481C257.169 599.497 262.519 594.087 267.44 588.297C272.361 594.087 277.711 599.497 283.445 604.481L283.466 604.5H251.414ZM388.974 604.5L388.995 604.481C394.729 599.497 400.079 594.087 405 588.297C409.921 594.087 415.272 599.497 421.006 604.481L421.026 604.5H388.974ZM433.96 503C433.96 510.691 430.909 518.068 425.478 523.506C420.047 528.945 412.681 532 405 532C397.319 532 389.953 528.945 384.522 523.506C379.091 518.068 376.04 510.691 376.04 503H433.96ZM378.645 488.5C381.284 478.622 385.377 467.042 388.238 459.5H421.77C424.627 467.042 428.719 478.622 431.363 488.5H378.645ZM558.586 604.5H526.534L526.554 604.481C532.288 599.497 537.639 594.087 542.56 588.297C547.481 594.087 552.832 599.497 558.566 604.481L558.586 604.5ZM542.56 532C534.882 531.991 527.521 528.933 522.092 523.497C516.663 518.06 513.609 510.689 513.6 503H571.52C571.511 510.689 568.457 518.06 563.028 523.497C557.599 528.933 550.238 531.991 542.56 532ZM568.915 488.5H516.205C518.844 478.622 522.937 467.042 525.798 459.5H559.33C562.183 467.042 566.276 478.622 568.915 488.5ZM347.08 234.75C347.091 225.139 350.908 215.925 357.695 209.129C364.481 202.333 373.682 198.511 383.28 198.5H426.72C436.318 198.511 445.519 202.333 452.305 209.129C459.092 215.925 462.909 225.139 462.92 234.75V278.008C443.669 276.759 425.202 269.903 409.79 258.284C396.306 248.269 389.363 238.065 389.294 237.964C388.497 236.774 387.367 235.847 386.045 235.3C384.723 234.753 383.269 234.61 381.866 234.89C380.463 235.169 379.174 235.859 378.162 236.871C377.151 237.884 376.461 239.174 376.18 240.578C372.017 261.406 356.891 271.215 347.08 275.478V234.75ZM347.08 321.75V290.977C356.898 287.674 376.512 278.589 386.176 256.789C406.308 278.014 433.739 290.789 462.92 292.529V321.75C462.905 335.205 457.561 348.105 448.059 357.619C438.558 367.133 425.677 372.485 412.24 372.5H397.76C384.323 372.485 371.442 367.133 361.94 357.619C352.439 348.105 347.095 335.205 347.08 321.75ZM397.76 387H412.24C419.64 387.003 426.986 385.738 433.96 383.259V401.384C433.861 403.09 432.202 415.999 405 415.999C377.798 415.999 376.14 403.09 376.04 401.384V383.259C383.014 385.738 390.36 387.003 397.76 387ZM291.849 425.425L363.52 410.046C364.581 412.567 366.011 414.915 367.763 417.014C375.209 425.963 387.737 430.5 405 430.5C422.263 430.5 434.792 425.963 442.237 417.016C443.989 414.917 445.419 412.568 446.48 410.048L518.151 425.427C522.717 426.428 526.841 428.87 529.918 432.393C532.995 435.917 534.862 440.335 535.245 445H520.84C519.393 445 517.979 445.434 516.781 446.247C515.583 447.059 514.655 448.212 514.118 449.558C512.583 453.401 499.12 487.549 499.12 503C499.134 513.275 502.775 523.215 509.4 531.062C516.024 538.909 525.205 544.159 535.32 545.885V573.642C529.495 583.508 512.3 597.989 503.911 604.5H443.648C435.261 597.995 418.071 583.523 412.245 573.643V545.885C422.359 544.159 431.539 538.908 438.162 531.061C444.785 523.214 448.426 513.275 448.44 503C448.44 487.549 434.977 453.401 433.442 449.558C432.905 448.212 431.977 447.059 430.779 446.247C429.581 445.434 428.167 445 426.72 445H383.28C381.833 445 380.419 445.434 379.221 446.247C378.023 447.059 377.095 448.212 376.558 449.558C375.023 453.401 361.56 487.549 361.56 503C361.574 513.275 365.215 523.215 371.84 531.062C378.464 538.909 387.645 544.159 397.76 545.885V573.642C391.935 583.508 374.74 597.989 366.35 604.5H306.088C297.702 597.995 280.511 583.523 274.68 573.643V545.885C284.795 544.159 293.976 538.909 300.6 531.062C307.225 523.215 310.866 513.275 310.88 503C310.88 487.549 297.417 453.401 295.882 449.558C295.345 448.212 294.417 447.059 293.219 446.247C292.021 445.434 290.607 445 289.16 445H274.755C275.137 440.335 277.004 435.916 280.081 432.392C283.158 428.869 287.283 426.427 291.849 425.425ZM250.674 459.5H284.206C287.063 467.042 291.156 478.622 293.799 488.5H241.085C243.729 478.622 247.817 467.042 250.674 459.5ZM238.48 503H296.4C296.4 510.691 293.349 518.068 287.918 523.506C282.487 528.945 275.121 532 267.44 532C259.759 532 252.393 528.945 246.962 523.506C241.531 518.068 238.48 510.691 238.48 503Z" fill="#BC6E44"/>
</svg>
