<svg width="779" height="893" viewBox="0 0 779 893" fill="none" xmlns="http://www.w3.org/2000/svg">
<path d="M619.537 279.757C699.938 408.228 788.38 521.282 778.196 620.847C768.012 720.411 659.202 805.844 550.927 852.736C442.653 899.628 335.451 907.978 229.321 864.941C123.727 821.903 19.2049 727.477 2.58853 616.35C-14.5638 505.223 56.1896 376.11 136.055 248.282C215.921 119.811 304.899 -7.3747 385.836 0.333537C466.238 8.68413 538.599 151.929 619.537 279.757Z" fill="#FAF8F2"/>
<path d="M153.673 528.84C170.283 526.245 184.969 528.109 197.421 534.35C195.131 544.99 196.895 556.101 202.369 565.51C190.976 565.87 180.17 570.646 172.238 578.825C164.306 587.005 159.87 597.947 159.87 609.337C159.87 620.726 164.306 631.668 172.238 639.848C180.17 648.028 190.976 652.803 202.369 653.163C196.649 663.028 195 674.732 197.772 685.791C200.544 696.851 207.52 706.396 217.218 712.403C226.917 718.41 238.577 720.406 249.724 717.967C260.871 715.528 270.628 708.846 276.926 699.339C280.924 705.38 286.358 710.337 292.742 713.767C299.126 717.196 306.262 718.992 313.51 718.992C320.759 718.992 327.894 717.196 334.278 713.767C340.662 710.337 346.096 705.38 350.094 699.339C355.184 707.038 362.577 712.934 371.22 716.186C379.863 719.438 389.313 719.879 398.221 717.447C399.504 718.451 401.086 718.998 402.715 719H549.05C550.763 719 552.423 718.398 553.738 717.301C555.053 716.204 555.942 714.68 556.248 712.995C556.554 711.311 556.258 709.572 555.413 708.083C554.568 706.594 553.226 705.448 551.622 704.846C537.668 699.602 497.833 680.203 497.833 660.517V543.552C497.833 541.404 498.856 535.246 507.966 523.362C526.405 516.736 542.352 504.591 553.632 488.581C564.912 472.571 570.977 453.475 571 433.897C571 381.74 535.281 302.627 533.761 299.285C533.179 298.007 532.242 296.924 531.061 296.164C529.88 295.404 528.504 295 527.1 295H424.666C423.261 295 421.886 295.404 420.705 296.164C419.523 296.924 418.586 298.007 418.005 299.285C416.485 302.627 380.765 381.74 380.765 433.897C380.789 453.475 386.854 472.571 398.134 488.581C409.414 504.591 425.36 516.736 443.8 523.362C452.909 535.249 453.933 541.405 453.933 543.552V660.517C453.933 671.671 441.146 682.731 427.525 691.177C430.103 684.638 431.07 677.575 430.343 670.585C429.616 663.595 427.217 656.881 423.348 651.012C419.479 645.142 414.255 640.288 408.114 636.859C401.974 633.431 395.098 631.528 388.067 631.311C391.879 624.75 393.92 617.313 393.992 609.727C394.063 602.141 392.162 594.667 388.475 588.035C384.788 581.404 379.44 575.843 372.956 571.896C366.472 567.949 359.073 565.751 351.484 565.518C357.204 555.653 358.853 543.95 356.081 532.89C353.309 521.831 346.333 512.285 336.634 506.278C326.936 500.271 315.276 498.276 304.129 500.715C292.982 503.154 283.225 509.835 276.926 519.343C273.608 514.341 269.299 510.073 264.265 506.799C259.231 503.526 253.58 501.317 247.66 500.31V490.337C259.857 496.118 271.584 497.79 282.656 495.303C302.249 490.901 312.06 474.888 312.472 474.209C312.991 473.346 313.325 472.384 313.454 471.385C313.583 470.387 313.505 469.372 313.223 468.405C312.941 467.438 312.462 466.539 311.816 465.766C311.171 464.992 310.372 464.361 309.47 463.91L290.035 454.201C307.198 436.044 313.094 407.482 313.373 406.089C313.742 404.247 313.386 402.333 312.381 400.746C311.375 399.158 309.796 398.019 307.972 397.563C287.066 392.341 266.42 394.091 254.981 395.827V375.414C254.981 374.255 254.705 373.114 254.177 372.083C253.649 371.052 252.883 370.161 251.942 369.484C251.002 368.806 249.913 368.362 248.767 368.187C247.621 368.013 246.45 368.113 245.35 368.479C211.04 379.901 200.799 403.517 197.744 416.875L184.128 412.341C183.028 411.974 181.856 411.873 180.709 412.047C179.562 412.222 178.474 412.666 177.533 413.343C176.591 414.02 175.825 414.912 175.296 415.943C174.768 416.975 174.492 418.117 174.492 419.276C174.492 449.629 184.17 466.372 188.833 472.68C186.035 476.813 183.595 481.177 181.539 485.724C177.568 494.459 175.178 503.828 174.481 513.397C166.778 512.843 159.037 513.181 151.412 514.402C150.439 514.523 149.501 514.838 148.653 515.328C147.804 515.819 147.063 516.474 146.473 517.256C145.884 518.038 145.457 518.931 145.219 519.881C144.981 520.831 144.936 521.818 145.088 522.786C145.239 523.753 145.584 524.681 146.101 525.512C146.618 526.344 147.297 527.064 148.098 527.629C148.898 528.193 149.804 528.591 150.762 528.799C151.72 529.007 152.71 529.021 153.673 528.84ZM276.926 638.586C271.138 638.586 265.48 636.871 260.667 633.658C255.854 630.445 252.103 625.878 249.887 620.535C247.672 615.192 247.093 609.312 248.222 603.64C249.351 597.968 252.139 592.758 256.232 588.668C260.325 584.579 265.54 581.794 271.217 580.665C276.894 579.537 282.779 580.116 288.126 582.329C293.474 584.543 298.045 588.29 301.261 593.099C304.477 597.908 306.193 603.561 306.193 609.345C306.185 617.097 303.098 624.53 297.612 630.012C292.125 635.494 284.686 638.577 276.926 638.586ZM174.492 609.345C174.492 603.561 176.209 597.908 179.425 593.099C182.641 588.29 187.212 584.543 192.559 582.329C197.907 580.116 203.792 579.537 209.469 580.665C215.146 581.794 220.361 584.579 224.454 588.668C228.547 592.758 231.335 597.968 232.464 603.64C233.593 609.312 233.013 615.192 230.798 620.535C228.583 625.878 224.832 630.445 220.019 633.658C215.206 636.871 209.548 638.586 203.759 638.586C196 638.577 188.561 635.494 183.074 630.012C177.587 624.53 174.501 617.097 174.492 609.345ZM240.343 704.379C234.554 704.379 228.896 702.664 224.083 699.451C219.27 696.238 215.519 691.671 213.304 686.328C211.089 680.985 210.509 675.105 211.638 669.433C212.768 663.761 215.555 658.551 219.648 654.461C223.741 650.372 228.956 647.587 234.633 646.458C240.31 645.33 246.195 645.909 251.543 648.122C256.891 650.336 261.462 654.084 264.677 658.892C267.893 663.701 269.61 669.355 269.61 675.138C269.601 682.891 266.515 690.323 261.028 695.805C255.541 701.287 248.102 704.371 240.343 704.379ZM313.51 704.379C307.722 704.379 302.063 702.664 297.25 699.451C292.437 696.238 288.686 691.671 286.471 686.328C284.256 680.985 283.676 675.105 284.806 669.433C285.935 663.761 288.722 658.551 292.815 654.461C296.908 650.372 302.123 647.587 307.8 646.458C313.478 645.33 319.362 645.909 324.71 648.122C330.058 650.336 334.629 654.084 337.845 658.892C341.06 663.701 342.777 669.355 342.777 675.138C342.768 682.891 339.682 690.323 334.195 695.805C328.709 701.287 321.269 704.371 313.51 704.379ZM429.445 309.621H522.32C528.344 323.585 547.126 369.084 553.899 408.393C544.447 412.462 526.523 419.276 512.466 419.276C503.835 419.276 491.787 410.677 480.135 402.362C466.607 392.707 452.618 382.724 439.299 382.724C428.958 382.724 416.394 386.714 401.955 394.582C401.452 394.857 400.96 395.131 400.47 395.405C408.569 359.567 424.076 322.067 429.445 309.621ZM395.399 433.897C395.449 427.479 395.942 421.072 396.875 414.722C406.897 408.022 425.735 397.345 439.299 397.345C447.93 397.345 459.978 405.944 471.63 414.259C485.158 423.913 499.147 433.897 512.466 433.897C527.346 433.897 544.806 427.934 555.885 423.425C556.198 427.033 556.367 430.536 556.367 433.897C556.367 455.224 547.887 475.677 532.793 490.758C517.7 505.838 497.228 514.31 475.883 514.31C454.537 514.31 434.066 505.838 418.972 490.758C403.878 475.677 395.399 455.224 395.399 433.897ZM435.86 703.268C457.563 689.717 468.566 675.333 468.566 660.517V543.552C468.566 539.035 467.113 533.906 464.252 528.219C471.977 529.168 479.789 529.168 487.514 528.219C484.653 533.905 483.199 539.035 483.199 543.552V660.517C483.199 675.333 494.203 689.717 515.905 703.268C516.508 703.645 517.11 704.015 517.711 704.379H434.054C434.655 704.014 435.257 703.643 435.86 703.268ZM415.944 675.138C415.944 680.921 414.228 686.575 411.012 691.384C407.796 696.192 403.225 699.94 397.877 702.153C392.529 704.367 386.645 704.946 380.968 703.817C375.29 702.689 370.075 699.904 365.982 695.815C361.889 691.725 359.102 686.515 357.973 680.843C356.843 675.17 357.423 669.291 359.638 663.948C361.853 658.605 365.605 654.038 370.417 650.825C375.23 647.612 380.889 645.897 386.677 645.897C394.437 645.905 401.875 648.989 407.362 654.471C412.849 659.953 415.935 667.385 415.944 675.138ZM379.361 609.345C379.361 615.128 377.644 620.782 374.428 625.59C371.212 630.399 366.641 634.147 361.294 636.36C355.946 638.574 350.061 639.153 344.384 638.024C338.707 636.896 333.492 634.111 329.399 630.022C325.306 625.932 322.518 620.722 321.389 615.05C320.26 609.377 320.839 603.498 323.055 598.155C325.27 592.811 329.021 588.245 333.834 585.032C338.647 581.818 344.305 580.103 350.094 580.103C357.853 580.112 365.292 583.196 370.779 588.678C376.265 594.16 379.352 601.592 379.361 609.345ZM313.51 514.31C319.298 514.31 324.957 516.025 329.77 519.238C334.583 522.451 338.334 527.018 340.549 532.362C342.764 537.705 343.344 543.584 342.215 549.256C341.085 554.929 338.298 560.139 334.205 564.228C330.112 568.318 324.897 571.103 319.22 572.231C313.543 573.36 307.658 572.78 302.31 570.567C296.962 568.354 292.391 564.606 289.176 559.797C285.96 554.989 284.243 549.335 284.243 543.552C284.252 535.799 287.338 528.367 292.825 522.885C298.312 517.403 305.751 514.319 313.51 514.31ZM269.61 543.552C269.61 549.335 267.893 554.989 264.677 559.797C261.462 564.606 256.891 568.354 251.543 570.567C246.195 572.78 240.31 573.36 234.633 572.231C228.956 571.103 223.741 568.318 219.648 564.228C215.555 560.139 212.768 554.929 211.638 549.256C210.509 543.584 211.089 537.705 213.304 532.362C215.519 527.018 219.27 522.451 224.083 519.238C228.896 516.025 234.554 514.31 240.343 514.31C248.102 514.319 255.541 517.403 261.028 522.885C266.514 528.367 269.601 535.799 269.61 543.552ZM195.437 454.738C193.179 449.438 190.581 441.132 189.564 429.564L201.445 433.521C202.542 433.892 203.711 433.997 204.856 433.828C206 433.658 207.089 433.218 208.03 432.545C208.971 431.872 209.738 430.984 210.268 429.956C210.797 428.928 211.075 427.788 211.076 426.632C211.091 425.466 211.772 400.383 240.343 386.281V404.655C240.344 405.765 240.598 406.86 241.085 407.858C241.572 408.855 242.28 409.729 243.156 410.412C244.031 411.096 245.05 411.572 246.137 411.803C247.223 412.035 248.348 412.016 249.427 411.749C249.678 411.687 272.657 406.134 297.184 410.246C294.034 420.838 286.574 440.615 272.868 449.745C271.801 450.456 270.941 451.433 270.371 452.58C269.802 453.728 269.545 455.004 269.624 456.282C269.704 457.56 270.118 458.794 270.825 459.862C271.532 460.93 272.508 461.793 273.654 462.366L294.598 472.829C290.315 476.892 285.024 479.74 279.271 481.077C268.9 483.341 257.168 480.179 244.401 471.676C243.299 470.943 242.019 470.521 240.696 470.458C239.373 470.394 238.058 470.69 236.89 471.314C235.723 471.938 234.747 472.867 234.066 474.002C233.386 475.137 233.026 476.436 233.026 477.759V494.279C225.42 489.396 215.165 481.866 207.267 472.611C218.892 459.353 235.69 448.682 257.478 440.767C259.302 440.105 260.787 438.745 261.608 436.988C262.428 435.231 262.517 433.22 261.854 431.398C261.19 429.576 259.83 428.091 258.071 427.271C256.312 426.451 254.3 426.363 252.476 427.026C235.373 433.24 214.435 443.696 198.424 460.708C197.301 458.784 196.303 456.79 195.437 454.738ZM195.231 490.966C196.215 488.844 197.301 486.77 198.488 484.745C205.34 492.007 212.984 498.481 221.276 504.048C213.661 507.739 207.267 513.537 202.854 520.753C198.413 518.641 193.776 516.968 189.009 515.757C189.454 507.168 191.567 498.748 195.231 490.966Z" fill="#BC6E44"/>
</svg>
